<svg width="87" height="23" xmlns="http://www.w3.org/2000/svg">
    <g fill="none">
        <path d="M10.854 0H3.82c-.483 0-.892.34-.967.802L.007 18.342c-.056.346.22.658.58.658h3.36c.48 0 .89-.34.965-.803l.768-4.73c.074-.464.484-.804.965-.804h2.227c4.634 0 7.31-2.18 8.007-6.5.314-1.89.013-3.377-.898-4.417C14.982.604 13.21 0 10.854 0zm.812 6.406C11.28 8.86 9.352 8.86 7.486 8.86h-1.06l.744-4.583c.045-.277.29-.48.58-.48h.486c1.27 0 2.47 0 3.088.703.37.42.483 1.044.342 1.906zM30.434 6.3H27.17c-.277 0-.518.2-.56.472l-.145.897-.228-.326C25.53 6.337 23.955 6 22.383 6c-3.606 0-6.686 2.683-7.285 6.446-.312 1.877.13 3.672 1.215 4.923.995 1.15 2.417 1.63 4.11 1.63 2.906 0 4.517-1.835 4.517-1.835l-.146.89c-.055.34.212.646.56.646h2.94c.467 0 .86-.33.935-.784l1.763-10.97c.055-.338-.21-.645-.56-.645zm-4.55 6.24c-.314 1.83-1.793 3.06-3.68 3.06-.948 0-1.705-.298-2.19-.864-.484-.562-.667-1.362-.513-2.252.294-1.816 1.8-3.085 3.657-3.085.927 0 1.68.3 2.176.872.497.576.695 1.38.552 2.268zM48.425 6h-3.327c-.318 0-.616.155-.796.414l-4.587 6.646-1.945-6.386c-.122-.4-.497-.674-.92-.674h-3.27c-.397 0-.673.382-.547.75l3.665 10.573-3.445 4.782c-.27.377.002.895.47.895h3.323c.315 0 .61-.15.79-.406L48.895 6.89c.265-.376-.007-.89-.473-.89z" fill="#253B80"/><path d="M58.855 0h-7.037c-.48 0-.89.34-.965.802l-2.846 17.54c-.056.346.22.658.58.658h3.61c.335 0 .622-.238.674-.562l.81-4.972c.073-.463.483-.803.964-.803h2.226c4.636 0 7.31-2.18 8.01-6.5.315-1.89.01-3.377-.9-4.417C62.983.604 61.21 0 58.856 0zm.81 6.406c-.382 2.454-2.31 2.454-4.178 2.454h-1.06l.746-4.583c.044-.277.29-.48.578-.48h.487c1.27 0 2.47 0 3.09.703.368.42.48 1.044.34 1.906zM79.43 6.3h-3.26c-.28 0-.52.2-.56.472l-.146.897-.23-.326C74.53 6.337 72.955 6 71.383 6c-3.606 0-6.685 2.683-7.285 6.446-.31 1.877.13 3.672 1.215 4.923.996 1.15 2.417 1.63 4.11 1.63 2.906 0 4.517-1.835 4.517-1.835l-.147.89c-.054.34.213.646.562.646h2.94c.464 0 .86-.33.933-.784l1.765-10.97c.054-.338-.213-.645-.563-.645zm-4.55 6.24c-.31 1.83-1.793 3.06-3.68 3.06-.946 0-1.705-.298-2.19-.864-.484-.562-.665-1.362-.514-2.252.296-1.816 1.8-3.085 3.657-3.085.927 0 1.68.3 2.176.872.5.576.696 1.38.55 2.268zM82.773.482l-2.765 17.86c-.054.346.21.658.554.658h2.78c.463 0 .855-.34.926-.803L86.993.66c.054-.347-.21-.66-.554-.66h-3.114c-.275 0-.51.205-.554.482z" fill="#179BD7"/>
    </g>
</svg>
